<?xml version="1.0" encoding="UTF-8"?><svg id="Layer_1" xmlns="http://www.w3.org/2000/svg" viewBox="0 0 36 44"><defs><style>.cls-1{fill:#a97a0c;}</style></defs><path class="cls-1" d="M22.3,36.3l-3.8-1.9c-.3-.2-.6-.5-.6-.9v-1.9c1.2-.4,2-1.5,2-2.8,0-1.7-1.3-3-3-3H7c-1.7,0-3,1.3-3,3s1.3,3,3,3h6c.6,0,1-.4,1-1s-.4-1-1-1h-6c-.6,0-1-.4-1-1s.4-1,1-1h10c.6,0,1,.4,1,1s-.4,1-1,1-1,.4-1,1v2.8c0,1.1.6,2.2,1.7,2.7l3.8,1.9c.3.2.6.5.6.9v2c0,.6-.4,1-1,1H3c-.6,0-1-.4-1-1v-2c0-.4.2-.7.6-.9l3.8-1.9c1-.5,1.7-1.5,1.7-2.7,0-.6-.4-1-1-1s-1,.4-1,1c0,.4-.2.7-.6.9l-3.8,1.9c-1.1.4-1.7,1.5-1.7,2.6v2c0,1.7,1.3,3,3,3h18c1.7,0,3-1.3,3-3v-2c0-1.1-.6-2.2-1.7-2.7Z"/><path class="cls-1" d="M33.7.3c-.2-.2-.5-.3-.8-.3s-.6.2-.7.4L14.2,23.4c-.3.4-.3,1.1.2,1.4.2.1.4.2.6.2.3,0,.6-.1.8-.4L33,2.6c.7,1.1,1,2.6,1,4.4,0,2.9-1.5,4.6-2.2,5.4l-3.9,1.3c-.3.1-.6.4-.7.8-.1.3.1.7.3.9l1.6,1.4c-2.1,1.9-4.5,3.4-8.4,4.2-.5.1-.9.7-.8,1.2s.7.9,1.2.8c5.2-1.1,7.9-3.3,10.1-5.5.2-.2.3-.6.3-.9,0-.2-.2-.4-.3-.6l-1.1-1,2.5-.9c.1,0,.3-.2.4-.3,2-1.8,3-4.2,3-6.8,0-2.9-.8-5.2-2.3-6.7Z"/></svg>