<?xml version="1.0" encoding="UTF-8"?><svg id="Layer_1" xmlns="http://www.w3.org/2000/svg" viewBox="0 0 44 44"><defs><style>.cls-1{fill:#a97a0c;}</style></defs><g id="colors"><path class="cls-1" d="M12,35c0-1.65-1.35-3-3-3s-3,1.35-3,3,1.35,3,3,3,3-1.35,3-3ZM8,35c0-.55.45-1,1-1s1,.45,1,1-.45,1-1,1-1-.45-1-1Z"/><path class="cls-1" d="M21.71,12.21l5.91-5.91c.39-.39,1.07-.39,1.46,0l8.62,8.62c.4.4.4,1.06,0,1.46l-2.45,2.45-7.54-7.54c-.39-.39-1.02-.39-1.41,0s-.39,1.02,0,1.41l7.54,7.54-2.04,2.04c-.39.39-.39,1.02,0,1.41.2.2.45.29.71.29s.51-.1.71-.29l5.91-5.91c1.18-1.18,1.18-3.11,0-4.29l-8.62-8.62c-1.15-1.15-3.14-1.15-4.29,0l-5.91,5.9c-.39.39-.39,1.02,0,1.41s1.02.39,1.42,0Z"/><path class="cls-1" d="M41,26h-20c-.55,0-1,.45-1,1s.45,1,1,1h20c.55,0,1,.45,1,1v12c0,.55-.45,1-1,1h-3v-11c0-.55-.45-1-1-1s-1,.45-1,1v11h-4v-11c0-.55-.45-1-1-1s-1,.45-1,1v11h-4v-11c0-.55-.45-1-1-1s-1,.45-1,1v11h-3c-.55,0-1,.45-1,1s.45,1,1,1h20c1.65,0,3-1.35,3-3v-12c0-1.65-1.35-3-3-3Z"/><path class="cls-1" d="M21.79,15.79c-.39.39-.39,1.02,0,1.41l6.5,6.5c.2.19.45.29.71.29s.51-.1.71-.29c.39-.39.39-1.02,0-1.41l-6.5-6.5c-.39-.39-1.02-.39-1.41,0Z"/><path class="cls-1" d="M15,0H3C1.35,0,0,1.35,0,3v22c0,.55.45,1,1,1h12c.55,0,1-.45,1-1s-.45-1-1-1H2v-4h11c.55,0,1-.45,1-1s-.45-1-1-1H2v-4h11c.55,0,1-.45,1-1s-.45-1-1-1H2v-4h11c.55,0,1-.45,1-1s-.45-1-1-1H2v-3c0-.55.45-1,1-1h12c.55,0,1,.45,1,1v38c0,.55-.45,1-1,1H3c-.55,0-1-.45-1-1v-12c0-.55-.45-1-1-1s-1,.45-1,1v12c0,1.65,1.35,3,3,3h12c1.65,0,3-1.35,3-3V3c0-1.65-1.35-3-3-3Z"/></g></svg>