<?xml version="1.0" encoding="UTF-8"?><svg id="Layer_1" xmlns="http://www.w3.org/2000/svg" viewBox="0 0 44 44"><defs><style>.cls-1{fill:#a97a0c;}</style></defs><path class="cls-1" d="M43.7,29.3c-2.1-2.1-5.3-2.5-7.8-1.1l-4.2,2c-1.1.5-2.4.8-3.7.9.6-.8,1-1.9,1-3s-.9-2-2-2h-10.4c-2.6,0-5.1,1.1-6.8,3.1l-3.5,4c-.5-.8-1.4-1.2-2.3-1.2H1c-.6,0-1,.4-1,1s.4,1,1,1h3c.6,0,1,.4,1,1v6c0,.6-.4,1-1,1H1c-.6,0-1,.4-1,1s.4,1,1,1h3c1.3,0,2.4-.8,2.8-2h5.5c.5,0,1,0,1.4-.1l14.1-1.6c2.3-.3,4.5-1.1,6.4-2.5l9.4-7c.2-.2.4-.4.4-.7s-.1-.6-.3-.8ZM33,36.2c-1.6,1.2-3.4,1.9-5.4,2.1l-14.1,1.6c-.4,0-.8.1-1.2.1h-5.3v-4.6l4.4-5c1.3-1.5,3.2-2.4,5.3-2.4h10.3c0,1.7-1.3,3-3,3h-6c-.6,0-1,.4-1,1s.4,1,1,1h9.7c1.7,0,3.3-.4,4.8-1.1l4.3-2c1.4-.8,3.2-.8,4.6.1l-8.4,6.2Z"/><path class="cls-1" d="M21,24c3.3,0,6-2.7,6-6s-2.7-6-6-6-6,2.7-6,6,2.7,6,6,6ZM21,14c2.2,0,4,1.8,4,4s-1.8,4-4,4-4-1.8-4-4,1.8-4,4-4Z"/><path class="cls-1" d="M34,18c2.8,0,5-2.2,5-5s-2.2-5-5-5-5,2.2-5,5,2.2,5,5,5ZM34,10c1.7,0,3,1.3,3,3s-1.3,3-3,3-3-1.3-3-3,1.3-3,3-3Z"/><path class="cls-1" d="M24,8c2.2,0,4-1.8,4-4s-1.8-4-4-4-4,1.8-4,4,1.8,4,4,4ZM24,2c1.1,0,2,.9,2,2s-.9,2-2,2-2-.9-2-2,.9-2,2-2Z"/></svg>