<?xml version="1.0" encoding="UTF-8"?><svg id="Layer_1" xmlns="http://www.w3.org/2000/svg" viewBox="0 0 44 42"><defs><style>.cls-1{fill:#a97a0c;}</style></defs><g id="magic_wand"><circle class="cls-1" cx="43" cy="9" r="1"/><circle class="cls-1" cx="39" cy="20" r="1"/><circle class="cls-1" cx="13" cy="13" r="1"/><circle class="cls-1" cx="23" cy="1" r="1"/><circle class="cls-1" cx="18" cy="18" r="1"/><circle class="cls-1" cx="25" cy="25" r="1"/><circle class="cls-1" cx="33" cy="1" r="1"/><path class="cls-1" d="M16,8h1v1c0,.6.4,1,1,1s1-.4,1-1v-1h1c.6,0,1-.4,1-1s-.4-1-1-1h-1v-1c0-.6-.4-1-1-1s-1,.4-1,1v1h-1c-.6,0-1,.4-1,1s.4,1,1,1Z"/><path class="cls-1" d="M34,22c-1.7,0-3,1.3-3,3s1.3,3,3,3,3-1.3,3-3-1.3-3-3-3ZM34,26c-.6,0-1-.4-1-1s.4-1,1-1,1,.4,1,1-.4,1-1,1Z"/><path class="cls-1" d="M39,17c.4,0,.7-.2.9-.6.2-.3.1-.8-.1-1.1l-3.6-4.6,2.3-6c.1-.4.1-.8-.2-1.1s-.7-.4-1.1-.2l-6,2.3-4.6-3.6c-.3-.2-.7-.3-1.1-.1-.3.3-.5.6-.5,1v5.9l-4.6,3.3c-.3.2-.5.6-.4,1s.3.7.7.8l4.5,1.5-9.6,9.5h-1.8c-.8,0-1.6.3-2.1.9L1.2,36.4c-.8.8-1.2,1.8-1.2,2.9,0,.7.3,1.4.8,1.9.5.5,1.2.8,1.9.8,1.1,0,2.1-.4,2.9-1.2l10.5-10.5c.6-.6.9-1.3.9-2.1v-1.8l10.7-10.7c.2-.2.3-.6.3-.9-.1-.3-.3-.6-.7-.7l-4.2-1.4,3.4-2.5c.3-.2.4-.5.4-.8v-4.3l3.4,2.7c.3.2.7.3,1,.2l4.4-1.7-1.7,4.4c-.1.3-.1.7.2,1l2.7,3.4h-4.3c-.3,0-.6.2-.8.4l-2.5,3.4v-.1c-.2-.5-.7-.8-1.3-.6-.5.2-.8.7-.6,1.3l.6,2c.1.4.4.6.8.7s.7-.1,1-.4l3.3-4.6h5.9v-.2ZM15,28.2c0,.3-.1.5-.3.7l-10.5,10.5c-.4.4-.9.6-1.5.6-.2,0-.4-.1-.5-.2s-.2-.3-.2-.5c0-.6.2-1.1.6-1.5l10.5-10.5c.2-.2.4-.3.7-.3h1.2v1.2Z"/></g></svg>